<?xml version="1.0" encoding="UTF-8"?> <svg xmlns="http://www.w3.org/2000/svg" xmlns:xlink="http://www.w3.org/1999/xlink" version="1.1" id="Layer_1" x="0px" y="0px" viewBox="0 0 960 560" style="enable-background:new 0 0 960 560;" xml:space="preserve"> <style type="text/css"> .st0{fill:#EBEBEB;} .st1{fill:#4AA9DB;} .st2{fill:#387FA4;} .st3{fill:#999999;} .st4{fill:#FCF3E0;} .st5{fill:#FFD9D9;} .st6{fill:#FFFFFF;} .st7{opacity:0.42;fill:#C3E8ED;enable-background:new ;} .st8{fill:#52CE90;} .st9{fill:#C3E8ED;} .st10{fill:#FF473D;} .st11{fill:#FF7471;} .st12{fill:#E51F1A;} .st13{fill:#2D2E75;} .st14{fill:#1D93D2;} .st15{fill:#051633;} .st16{fill:#58595B;} .st17{fill:#11393D;} .st18{fill:#808081;} .st19{fill:#4B5D7E;} .st20{fill:#001738;} .st21{opacity:0.55;fill:#FFFFFF;enable-background:new ;} .st22{fill:#FCC1C0;} .st23{fill:#062051;} .st24{fill:#17609B;} .st25{fill:#FEFEFE;} .st26{fill:#5589B1;} .st27{fill:#FFE7E5;} .st28{fill:#F1C362;} .st29{fill:#E8806F;} .st30{fill:#B5924A;} .st31{fill:#1988A4;} .st32{fill:#FFB000;} .st33{opacity:0.5;fill:#F8753F;enable-background:new ;} .st34{fill-rule:evenodd;clip-rule:evenodd;fill:#141A33;} .st35{fill-rule:evenodd;clip-rule:evenodd;fill:#030822;} .st36{fill-rule:evenodd;clip-rule:evenodd;fill:#2C3049;} .st37{fill-rule:evenodd;clip-rule:evenodd;fill:#3A3F57;} .st38{fill-rule:evenodd;clip-rule:evenodd;fill:#00000F;} .st39{fill-rule:evenodd;clip-rule:evenodd;fill:#242942;} .st40{fill:#031D47;} .st41{fill:#C3A46E;} .st42{fill:#3E9B6C;} .st43{fill:#FF9D91;} </style> <ellipse class="st0" cx="284.3" cy="502" rx="85.3" ry="13.2"></ellipse> <ellipse class="st0" cx="562.3" cy="516.9" rx="99.7" ry="13.2"></ellipse> <g> <g> <g> <g> <polygon class="st1" points="157.4,277.1 154.7,277.9 161.2,306.2 163.9,305.3 "></polygon> </g> <g> <path class="st1" d="M155.4,273.3c0,0.3,0,0.4-0.1,0.5l0,0c-0.1,0-0.3-0.1-0.4-0.3l-0.3-1.3c0-0.3,0-0.4,0.1-0.5l0,0 c0.1,0,0.3,0.1,0.4,0.3L155.4,273.3z"></path> </g> <g> <polygon class="st1" points="155.2,272.8 154.7,273 154.7,277.9 157.4,277.1 "></polygon> </g> </g> <g> <g> <polygon class="st1" points="166.6,274 163.9,274.2 164.9,303.4 167.8,303.2 "></polygon> </g> <g> <path class="st1" d="M165.3,269.8c0,0.3-0.1,0.4-0.3,0.4l0,0c-0.1,0-0.3-0.1-0.3-0.4v-1.4c0-0.3,0.1-0.4,0.3-0.4l0,0 c0.1,0,0.3,0.1,0.3,0.4V269.8z"></path> </g> <g> <polygon class="st1" points="165.3,269.3 164.8,269.4 163.9,274.2 166.6,274 "></polygon> </g> </g> <g> <g> <polygon class="st1" points="177.2,275.7 174.5,275.1 169.3,303.8 172,304.4 "></polygon> </g> <g> <path class="st1" d="M176.9,271.3c0,0.3-0.1,0.4-0.4,0.3l0,0c-0.1,0-0.3-0.3-0.1-0.4l0.3-1.3c0-0.3,0.1-0.4,0.4-0.3l0,0 c0.1,0,0.3,0.3,0.1,0.4L176.9,271.3z"></path> </g> <g> <polygon class="st1" points="176.9,270.8 176.4,270.7 174.5,275.1 177.2,275.7 "></polygon> </g> </g> <g> <polygon class="st1" points="159.8,323.1 157.7,293.5 180.8,293.5 179.5,323.1 "></polygon> </g> <g> <path class="st2" d="M155.1,293.5h7.5c0,0-3.7,24.9,6.7,29.5h-12L155.1,293.5z"></path> </g> </g> </g> <g> <g> <g> <path class="st3" d="M108.1,336.3l8.7,146.2c0,0,75.7-3.2,75.6-4.7c-0.1-1.4,3.5-144.9,3.5-144.9L108.1,336.3z"></path> </g> <g> <polyline class="st3" points="108.1,343.9 196.6,343.9 195.8,355 108.1,343.9 "></polyline> </g> <g> <polygon class="st3" points="86.8,321.2 477.5,321.2 477.5,334.9 86.8,343.9 "></polygon> </g> <g> <g> <g> <g> <g> <polygon class="st3" points="421.7,335.3 417.1,467.4 410.8,467.7 408.4,335.3 "></polygon> </g> </g> </g> </g> </g> </g> </g> <g> <g> <path class="st4" d="M110.8,382.7c0,0.1,83.6,5.2,83.6,5.2l-0.1,4.1l-83.2-4.7L110.8,382.7z"></path> </g> </g> <g> <g> <polygon class="st4" points="113.6,430.3 193.5,428.1 193.4,432.8 113.8,432.8 "></polygon> </g> </g> <g> <g> <path class="st4" d="M161.2,367.4h-15.4c-0.9,0-1.7-0.9-1.7-2.1l0,0c0-1.2,0.8-2.1,1.7-2.1h15.4c0.9,0,1.7,0.9,1.7,2.1l0,0 C163,366.5,162.2,367.4,161.2,367.4z"></path> </g> </g> <g> <g> <path class="st4" d="M162.3,411.7H147c-0.9,0-1.7-0.9-1.7-2.1l0,0c0-1.2,0.8-2.1,1.7-2.1h15.4c0.9,0,1.7,0.9,1.7,2.1l0,0 C164.2,410.8,163.4,411.7,162.3,411.7z"></path> </g> </g> <g> <g> <path class="st4" d="M162.3,457.2H147c-0.9,0-1.7-0.9-1.7-2.1l0,0c0-1.2,0.8-2.1,1.7-2.1h15.4c0.9,0,1.7,0.9,1.7,2.1l0,0 C164.2,456.3,163.4,457.2,162.3,457.2z"></path> </g> </g> <path class="st4" d="M149.4,479.6c0,0,221.3-12.3,342.4-104.6C631,268.7,845.7,140.9,864.8,270.7c19.1,129.8,0,212.9,0,212.9 L149.4,479.6z"></path> <path class="st5" d="M350.8,135.4c-1.3,3.2-0.9,6.7-0.9,10.1c-0.1,9.6,0,19.2,0,28.8c-2.7,0-5.3-0.1-8,0c-2.2,0.1-3.1-0.8-3.1-3 c0.1-11.1,0-22.1,0-33.2c0-2.1,0.9-2.8,2.8-2.7C344.7,135.4,347.8,135.3,350.8,135.4z"></path> <path class="st6" d="M733.7,320.2H447.3c-30,0-54.1-24.3-54.1-54.1V106.5c0-30,24.3-54.1,54.1-54.1h286.4c30,0,54.1,24.3,54.1,54.1 v159.4C787.8,296,763.5,320.2,733.7,320.2z"></path> <rect x="438.1" y="168.4" class="st7" width="304.3" height="30.2"></rect> <path class="st8" d="M772.7,320.5H408.2c-8.5,0-15.5-6.5-15.5-14.2V44.2c0-7.9,7-14.2,15.5-14.2h364.4c8.5,0,15.5,6.5,15.5,14.2 v262.1C788.2,314.2,781.2,320.5,772.7,320.5z M408.2,30.7c-8.1,0-14.7,6.1-14.7,13.6v262.1c0,7.5,6.6,13.6,14.7,13.6h364.4 c8.1,0,14.7-6.1,14.7-13.6V44.2c0-7.5-6.6-13.6-14.7-13.6H408.2z"></path> <path class="st8" d="M772.7,33.3c6.6,0,11.9,4.9,11.9,10.9v262.1c0,5.9-5.3,10.9-11.9,10.9H408.2c-6.6,0-11.9-4.9-11.9-10.9v-262 c0-5.9,5.3-10.9,11.9-10.9h364.5 M772.7,30.3H408.2c-8.4,0-15.1,6.2-15.1,14v262.1c0,7.8,6.8,14,15.1,14h364.4 c8.4,0,15.1-6.2,15.1-14V44.2C787.8,36.5,781.1,30.3,772.7,30.3L772.7,30.3z"></path> <path class="st8" d="M772.7,30.3H408.2c-8.4,0-15.1,6.2-15.1,14v25.4h394.8V44.2C787.8,36.5,781.1,30.3,772.7,30.3z"></path> <path class="st6" d="M700.9,59.7h-167c-5.4,0-9.7-4-9.7-8.9l0,0c0-4.9,4.4-8.9,9.7-8.9h167c5.4,0,9.7,4,9.7,8.9l0,0 C710.6,55.7,706.2,59.7,700.9,59.7z"></path> <path class="st6" d="M408.2,55.7c-0.5,0-0.9-0.1-1.3-0.5c-0.8-0.6-0.8-1.8,0-2.5l8.9-8.1c0.8-0.6,1.9-0.6,2.6,0 c0.8,0.6,0.8,1.8,0,2.5l-8.9,8.1C409.1,55.6,408.7,55.7,408.2,55.7z"></path> <path class="st6" d="M417.1,55.7c-0.5,0-0.9-0.1-1.3-0.5l-8.9-8.1c-0.8-0.6-0.8-1.8,0-2.5c0.8-0.6,1.9-0.6,2.6,0l8.9,8.1 c0.8,0.6,0.8,1.8,0,2.5C418,55.6,417.6,55.7,417.1,55.7z"></path> <path class="st6" d="M455.1,55.7c-3.5,0-6.3-2.6-6.3-5.8s2.8-5.8,6.3-5.8c3.5,0,6.3,2.6,6.3,5.8C461.3,53.2,458.4,55.7,455.1,55.7z M455.1,47.6c-1.4,0-2.6,1-2.6,2.3c0,1.3,1.2,2.3,2.6,2.3s2.6-1,2.6-2.3C457.6,48.6,456.5,47.6,455.1,47.6z"></path> <path class="st6" d="M438,51.7h-9.6c-1,0-1.8-0.8-1.8-1.7s0.8-1.7,1.8-1.7h9.6c1,0,1.8,0.8,1.8,1.7S439,51.7,438,51.7z"></path> <path class="st9" d="M730.3,143.1H450.5c-6.6,0-12-5.4-12-12v-6.6c0-6.6,5.4-12,12-12h279.8c6.6,0,12,5.4,12,12v6.6 C742.5,137.6,737,143.1,730.3,143.1z"></path> <path class="st8" d="M730.3,143.1h-46.8c-6.6,0-12-5.4-12-12v-6.6c0-6.6,5.4-12,12-12h46.8c6.6,0,12,5.4,12,12v6.6 C742.5,137.6,737,143.1,730.3,143.1z"></path> <path class="st6" d="M713.8,134.7c-0.6,0.6-1.3,1.3-2.1,2.1c-0.9-0.8-1.7-1.7-2.6-2.6c-0.5-0.5-1-0.9-1.4-1.4 c-0.3-0.3-0.5-0.4-0.9-0.1c-3.9,2.3-8.8,1-11.1-2.8c-3.1-5.3,0.6-12.1,6.8-12.3c4.9-0.1,8.7,4,8.3,8.8c-0.1,1.3-0.5,2.6-1.3,3.7 c-0.1,0.3-0.1,0.5,0.1,0.6c1.3,1.3,2.6,2.5,3.7,3.7C713.7,134.4,713.8,134.5,713.8,134.7z M702.9,119.7c-3.2,0-5.8,2.6-5.8,5.8 s2.6,5.8,5.8,5.8c3.2,0,5.8-2.6,5.8-5.8S706.2,119.7,702.9,119.7z"></path> <path class="st6" d="M714.6,135.3c0.4,0.3,0.8,0.6,0.6,1.3c-0.3,0.6-0.6,1.2-1.4,1.4c-0.6,0.1-0.9-0.3-1.3-0.6 C713.3,136.6,713.9,136,714.6,135.3z"></path> <rect x="451.6" y="237.2" class="st10" width="6.3" height="55.9"></rect> <rect x="471.7" y="260.2" class="st11" width="6.3" height="33.1"></rect> <rect x="491" y="237.2" class="st12" width="6.3" height="55.9"></rect> <rect x="511.1" y="260.2" class="st10" width="6.3" height="33.1"></rect> <polygon class="st13" points="538.6,299.9 433.5,299.9 433.5,230.4 434.8,230.4 434.8,298.6 538.6,298.6 "></polygon> <polygon class="st13" points="434.3,224.4 436.5,228.4 438.8,232.3 434.3,232.3 429.6,232.3 431.9,228.4 "></polygon> <polygon class="st13" points="545.7,298.3 541.7,300.7 537.9,303 537.9,298.3 537.9,293.8 541.7,296.1 "></polygon> <polygon class="st14" points="615.4,168.2 626.1,176.8 629.1,162 "></polygon> <polygon class="st14" points="508.4,206.5 456.5,167.5 434.1,179.6 433.2,177.8 456.6,165.1 508.1,203.8 535.4,171.1 588.2,203.9 623.9,167.3 625.3,168.8 588.5,206.4 535.8,173.7 "></polygon> <circle class="st10" cx="456.3" cy="167" r="4.7"></circle> <circle class="st10" cx="535.5" cy="173" r="4.7"></circle> <circle class="st10" cx="588" cy="205.1" r="4.7"></circle> <rect x="649.5" y="175.7" class="st6" width="89" height="1.8"></rect> <rect x="649.5" y="179.9" class="st6" width="89" height="1.8"></rect> <rect x="649.5" y="187.5" class="st6" width="89" height="1.8"></rect> <rect x="649.5" y="191.6" class="st6" width="89" height="1.8"></rect> <path class="st15" d="M595.3,274.9c0,0,6.1,4.7-0.6,15.1c-6.7,10.3,2.2,15.9,2.2,15.9l15.2-17.2l-0.8-13.8H595.3z"></path> <path class="st16" d="M653.9,518.7H549.5c-5.6,0-10.1-4.5-10.1-10.1v-75.1c0-5.6,4.5-10.1,10.1-10.1h35.4c2.5,0,4.5-1.6,5.3-3.9 l32.3-107.1c2.7-9,10.9-15.1,20.3-15.1h34.1c3.2,0,6.2,1.4,8.1,4.1c1.9,2.6,2.5,5.8,1.6,8.9l-33.5,110.4c-1.3,4.3-5.2,7.2-9.7,7.2 H608c-3,0-5.4,2.5-5.4,5.4v75.1c0,3,2.5,5.4,5.4,5.4h45.9V518.7z M549.5,428c-3,0-5.4,2.5-5.4,5.4v75.2c0,3,2.5,5.4,5.4,5.4h50.1 c-1-1.6-1.6-3.5-1.6-5.4v-75.1c0-5.6,4.5-10.1,10.1-10.1h35.4c2.5,0,4.5-1.6,5.3-3.9l33.3-110.4c0.5-1.7,0.3-3.5-0.9-4.8 c-1-1.4-2.6-2.2-4.4-2.2h-34.1c-7.4,0-13.7,4.8-15.9,11.8L594.6,421c-1.3,4.3-5.2,7.2-9.7,7.2h-35.4V428z"></path> <path class="st17" d="M614.1,372.5h45.3c3.6,0,6.8-2.5,8-5.9l15.2-50.4c1-3.4-1.6-6.8-5-6.8h-45.3c-3.6,0-6.8,2.5-8,5.9L609,365.6 C608,369.1,610.6,372.5,614.1,372.5z"></path> <path class="st8" d="M614.1,372.5h39.1c3.6,0,6.8-2.5,8-5.9l15.2-50.4c1-3.4-1.6-6.8-5-6.8h-39.1c-3.6,0-6.8,2.5-8,5.9L609,365.6 C608,369.1,610.6,372.5,614.1,372.5z"></path> <path class="st8" d="M635.5,403.7h-87.8c-2.5,0-4.4,1.9-4.4,4.4v13.3h96.5v-13.3C639.9,405.7,637.8,403.7,635.5,403.7z"></path> <path class="st17" d="M642.2,414.8H541c-1,0-1.9,0.9-1.9,1.9v6.5c0,1,0.9,1.9,1.9,1.9h101.3c1,0,1.9-0.9,1.9-1.9v-6.5 C644.2,415.7,643.3,414.8,642.2,414.8z"></path> <path class="st18" d="M653.9,518.7H608c-5.6,0-10.1-4.5-10.1-10.1v-75.1c0-5.6,4.5-10.1,10.1-10.1h35.4c2.5,0,4.5-1.6,5.3-3.9 L682,309.2c0.5-1.7,0.3-3.5-0.9-4.8c-1-1.4-2.6-2.2-4.4-2.2h-34c-1.3,0-2.3-1-2.3-2.3s1-2.3,2.3-2.3h34.1c3.2,0,6.2,1.4,8.1,4.1 c1.9,2.6,2.5,5.8,1.6,8.9l-33.5,110.3c-1.3,4.3-5.2,7.2-9.7,7.2H608c-3,0-5.4,2.5-5.4,5.4v75.1c0,3,2.5,5.4,5.4,5.4h45.9 c1.3,0,2.3,1,2.3,2.3C656.2,517.7,655.1,518.7,653.9,518.7z"></path> <path class="st19" d="M522.6,381.3c0,0-29.5,4.7-21.2,22.9s49.3,74.4,50.5,83.8c1.2,9.4,9-5.6,9-5.6s-6.1-65-25.6-76 c-19.5-11,60.3-25.2,60.3-25.2S542.6,379.6,522.6,381.3z"></path> <path class="st20" d="M546,419.5c0,0-6.7-2.7-6.6,1.8c0.1,4.5,0.9,20.9-6.1,34.1l-3.9-6.1l5-44.2C534.4,405.2,544.8,413.7,546,419.5 z"></path> <path class="st19" d="M508.9,485.9c0,0-0.3-43.9-1.2-74.8c-0.9-30.9,28-26.2,55.4-27.6s42.8-8,42.8-8s13.8,0.3,12.8,18.2 c0,0-6.1,24.7-36.7,22c-30.6-2.7-46.8-0.3-46.8-0.3s10.3,12.8-16.4,70.4h-9.9V485.9z"></path> <path class="st20" d="M564,382.4c0,0,16.9,3.6,31.8,4.9c14.9,1.3,22.9,9.8,15,19.5c0,0,11.2-10.7,7.6-20 C614.7,377.5,566,378.7,564,382.4z"></path> <path class="st8" d="M296.7,361.9c-0.6-2.3-0.4-4.9,1-7l87.2-131c2.6-3.9,7.8-4.9,11.6-2.3c3.9,2.6,4.9,7.8,2.3,11.6l-87.2,131 c-2.6,3.9-7.8,4.9-11.6,2.3C298.4,365.2,297.2,363.6,296.7,361.9z"></path> <path class="st8" d="M356.1,191.4c-4.3-14.3-4.4-30.1,0.6-45.3c6.3-19.2,19.8-34.7,37.8-43.9s38.6-10.6,57.7-4.4 c39.7,13,61.4,55.9,48.3,95.6c-6.3,19.2-19.8,34.7-37.8,43.9s-38.6,10.6-57.7,4.4C380.7,233.6,363.1,214.2,356.1,191.4z M485.2,152.7c-5.4-17.8-19.1-32.9-38.1-39.1c-15-4.9-31-3.7-45.1,3.4c-14.1,7.1-24.5,19.2-29.5,34.2c-4.9,15-3.7,31,3.4,45.1 c7.1,14.1,19.2,24.5,34.2,29.5c15,4.9,31,3.7,45.1-3.4c14.1-7.1,24.5-19.2,29.5-34.2C488.6,176.3,488.5,164,485.2,152.7z"></path> <circle class="st21" cx="415.5" cy="163.5" r="69.5"></circle> <path class="st22" d="M225.1,477.2l-3,16.3l18.2-1.7c0,0-3.1-8.7-2.2-17.8C239.1,464.7,225.1,477.2,225.1,477.2z"></path> <path class="st22" d="M312.2,470l-3,16.3l18.2-1.7c0,0-3.1-8.7-2.2-17.8C326.1,457.6,312.2,470,312.2,470z"></path> <path class="st23" d="M242.6,309.2c0,0-0.9,8-1.2,41.7c-0.3,33.7-18.3,30.1-20.3,103.9v24c0,0,7.6,3.7,18.2,1.8 c0,0,11.2-63,16.8-69.9c5.6-6.8,16.4-84.4,28.9-76.7c12.4,7.6,13.4,48.2,16.1,66.9c2.5,17.1,8.5,70.9,8.5,70.9s10.6,4.4,18,0 c0,0-0.3-55.5-0.3-73.5S316.1,310,316.1,310L242.6,309.2z"></path> <polygon class="st15" points="319,330.6 296.8,365.1 294.5,347.8 318.1,319.4 "></polygon> <path class="st15" d="M299.7,326.2c0,0-27,2.8-40.3,3.1c-13.3,0.3-17.8,16.1-17.8,16.1s-0.1-30.4,0.8-30.9 C243.2,314.2,319.7,304.9,299.7,326.2z"></path> <path class="st24" d="M242.8,510.2c2.3,0,4.7,0,7-0.1c2.1,0,4.3-0.1,6.3-0.3c1.9-0.1,4-0.3,5.9-0.5c1.8-0.1,3.5-0.4,5.3-0.8 c0.5-0.1,1-0.1,1.6-0.3c0.1,0,0.3-0.1,0.4-0.3c0.6-1.3,1.2-2.7,1.3-4.3c0-0.1,0-0.3,0-0.4c-0.1-0.4,0-0.6,0-1 c0.3-1.9-0.6-3.7-2.3-4.5c-0.8-0.4-1.7-0.5-2.6-0.8c-2.7-0.6-5.3-1.3-7.9-2.2c-0.9-0.4-1.9-0.8-2.8-1.2c-0.1-0.1-0.3-0.1-0.1-0.3 c0.3-0.4,0.1-0.8-0.1-1c-0.3-0.5-0.8-0.8-1.4-0.9c-0.3,0-0.4,0.1-0.5,0.4c-0.1,0.1-0.1,0.3-0.3,0.3c-0.1-0.1-0.4-0.3-0.5-0.4 c-0.1,0,0-0.1,0-0.1c0.1-0.3,0.1-0.5,0.1-0.8c-0.3-0.8-0.9-1.2-1.6-1.3c-0.3,0-0.4,0.1-0.5,0.4c-0.1,0.1-0.1,0.3-0.3,0.1 c-0.1-0.1-0.4-0.1-0.3-0.4c0.3-0.4,0.1-0.9-0.4-1.4c-0.4-0.4-0.8-0.5-1.2-0.5c-0.3,0-0.4,0.1-0.5,0.4c-0.1,0.1-0.3,0.3-0.4,0 c0,0-0.1-0.1-0.3-0.1s-0.1-0.1,0-0.3c0.3-0.6,0.1-1.2-0.4-1.6c-0.3-0.3-0.6-0.4-1-0.5c-0.3,0-0.4,0.1-0.5,0.4 c-0.1,0.1-0.3,0.1-0.4,0c-1.3-0.9-2.6-1.9-3.9-2.8c-0.3-0.1-0.5-0.3-0.6-0.4c-0.3-0.1-0.4-0.1-0.5,0.1c-0.9,1-1.7,2.1-2.3,3.2 c0,0.1-0.1,0.1-0.3,0.1c-0.6,0.3-1.3,0.4-1.8,0.8c-1.8,0.9-3.7,1.6-5.6,2.7c-1.6,1-3,0.4-4-1c-0.5-0.8-0.8-1.7-0.8-2.6 c0-0.4-0.1-0.6-0.3-0.9c-0.3-0.5-0.8-0.8-1.4-0.6c-0.8,0.1-1.4,0.5-2.1,0.9c-0.1,0-0.1,0.1-0.1,0.3c-0.5,0.9-0.8,2.1-0.9,3.1 c-0.1,0.4-0.1,0.9-0.1,1.3c0,0.1,0,0.1-0.1,0.3c-1.2,2.3-1.9,4.9-2.2,7.5c-0.1,1.2-0.3,2.5-0.1,3.6c0,0.1,0,0.3-0.1,0.4 c-0.3,0.3-0.5,0.5-0.5,0.9c-0.1,1.7-0.1,3.5,0,5.2c0,0.4,0.1,0.6,0.1,1c0,0.3,0.1,0.4,0.4,0.4c2.7,0.3,5.6,0.4,8.3,0.6 c2.7,0.1,5.4,0.3,8.1,0.4C236.9,510,239.9,510.2,242.8,510.2z M245.9,509.8c-3.4,0-6.7,0-10.1-0.1c-1.8,0-3.7-0.1-5.6-0.3 c-2.1-0.1-4-0.3-6.1-0.4c-2.2-0.1-4.3-0.3-6.5-0.5c-0.6,0-0.6,0-0.6-0.8l0,0c-0.1-1.7-0.1-3.4,0-5c0-0.8,0.1-0.9,0.8-1.2h0.1 c1.4-0.4,2.7-0.9,4-1.4c1.2-0.4,2.3-0.9,3.5-1.2c0.5-0.1,1-0.1,1.4,0.4c0.6,0.5,1,1.2,1.4,1.9c0.3,0.5,0.5,0.8,1,1 c0.8,0.5,1.7,0.6,2.6,0.6c3-0.1,5.9,0,8.9,0.1c1.8,0.1,3.6,0.3,5.3,0.6c1.2,0.3,2.2,0.5,3.2,1.2c0.3,0.1,0.5,0.3,0.9,0.3 c0.3,0,0.4,0,0.6,0c1.3,0,2.5,0,3.7,0c1.7,0,3.4,0,4.9-0.1c2.2-0.1,4.4-0.3,6.6-0.8c1.3-0.3,2.5-0.5,3.6-1.2c0.3-0.1,0.1,0,0.1,0.1 c0,0.4,0.1,0.9,0,1.3c-0.3,1.2-0.6,2.2-1,3.1c0,0.1-0.1,0.1-0.3,0.1c-0.9,0.1-1.9,0.4-2.8,0.5c-1.8,0.3-3.7,0.5-5.6,0.6 c-2.2,0.3-4.5,0.4-6.7,0.5C251.1,509.7,248.5,509.8,245.9,509.8z M231.5,499.1c-1.4,0-2.7-0.5-3.7-1.3c-0.9-0.6-1.8-1.4-2.7-2.3 c-0.6-0.6-1.4-1.3-2.2-1.8c-0.6-0.5-1.4-0.8-2.3-0.8c-0.1,0-0.1,0-0.1-0.3c0.3-0.6,0.5-1.3,0.8-1.9c0.5-1.2,1.4-1.8,2.5-2.3 c0.1,0,0.1,0,0.1,0.1c0,0.3,0.1,0.5,0.1,0.8c0.3,1.2,0.5,2.2,1.2,3.2c0.9,1.2,1.8,1.6,3.1,1.2c1.2-0.4,1.9-1,2.8-1.9 c0.5-0.5,0.9-1,1.4-1.6c0.6-0.6,1.4-1.2,2.1-1.7c0.9-0.5,1.7-1,2.6-1.6c0.1-0.1,0.3,0,0.4,0.1c0.4,0.4,0.8,0.8,1.2,1 c0.9,0.5,1.9,0.9,3,1.2c0.5,0.1,1,0.1,1.6,0.5c0.8,0.6,1.6,1.2,2.5,1.7c0.8,0.5,1.6,1,2.2,1.6c1,0.8,2.1,1.6,3.1,2.3 c0.6,0.5,1.4,1,2.2,1.4c1.2,0.6,2.3,1.2,3.7,1c1.2,0,2.2-0.5,2.8-1.7c0.3-0.4,0.3-0.4,0.6-0.3c1.4,0.4,2.7,0.8,4.1,1 c0.1,0,0.1,0,0.3,0.1c0.3,0.5,0.6,0.9,0.8,1.4c0.1,0.4,0.3,0.6,0.1,1c-0.1,0.6-0.6,0.8-1,0.9c-0.9,0.1-1.8,0.4-2.7,0.8 c-1.3,0.5-2.6,1-3.9,1.4c-1.3,0.4-2.5,0.6-3.7,0.6c-0.9,0-1.7-0.1-2.6-0.3c-0.6-0.1-1.4-0.4-1.9-0.8c-0.5-0.4-1.2-0.8-1.7-1 c-0.9-0.6-1.9-1-3-1.6c-1.3-0.5-2.6-1-3.9-1.3c-0.8-0.1-1.7-0.4-2.5-0.4c-0.6,0-1.3,0-1.9,0c-0.9,0-1.8,0.3-2.8,0.5 C233.1,498.8,232.4,499.2,231.5,499.1z M253,494.9c-0.8,0-1.2-0.5-1-1.2c0-0.1,0.1-0.3,0.1-0.3c0.3-0.6,0.6-1,1-1.6 c0,0,0.1-0.1,0.3-0.1c0.5,0,1.2,0.5,1.2,1.2c0,0.1,0,0.1,0,0.3c-0.1,0.4-0.4,0.8-0.8,1.2C253.7,494.5,253.3,494.9,253,494.9z M249.3,492c0,0,0-0.1,0-0.3c0.3-0.8,0.8-1.4,1.3-1.9c0-0.1,0.1,0,0.3,0c0.3,0,0.5,0.1,0.8,0.4c0.4,0.4,0.4,0.8,0.3,1.3 c-0.1,0.4-0.4,0.6-0.6,1c-0.1,0.3-0.4,0.4-0.6,0.4C249.9,493,249.3,492.6,249.3,492z M247.7,490.9c-0.8,0-1.2-0.5-0.9-1.2 c0-0.1,0-0.1,0.1-0.3c0.3-0.6,0.6-1.2,1.2-1.7c0.1-0.1,0.1-0.1,0.3-0.1c0.5,0,1,0.4,1.2,0.9c0,0.1,0.1,0.3,0,0.4 c-0.3,0.5-0.6,1-1,1.4C248.1,490.8,247.9,490.9,247.7,490.9z M245,488.9c-0.6,0-1-0.5-0.8-1.2c0-0.3,0.1-0.5,0.3-0.6 c0.3-0.4,0.5-0.8,0.9-1.2c0.1-0.1,0.1-0.1,0.3-0.1c0.5,0,1,0.5,1.2,1.2c0,0.1,0,0.1,0,0.3c-0.3,0.5-0.5,1-0.9,1.4 C245.7,488.7,245.4,488.9,245,488.9z M250.8,504.9c0.1-0.3,0.4-0.4,0.5-0.5c0.3-0.3,0.5-0.4,0.9-0.1c0.1,0.1,0.3,0,0.4,0 c0.4-0.3,0.6-0.1,0.9,0.1c0.3,0.3,0.4,0.4,0.5,0.6l0.1,0.1c-0.4,0-0.5-0.3-0.8-0.5c-0.3-0.3-0.4-0.4-0.8-0.1c-0.1,0.1-0.4,0.1-0.5,0 c-0.3-0.1-0.4-0.1-0.6,0.1c-0.1,0.1-0.1,0.1-0.3,0.3C251.2,504.9,251.1,505,250.8,504.9z M233,488.3c0.3-0.1,0.5-0.3,0.6-0.4 c0.1,0,0.1,0,0.3,0.1c0.1,0.3,0,0.4-0.3,0.6c-0.3,0.1-0.3,0-0.4-0.1C233.3,488.5,233.1,488.5,233,488.3z M236.1,487.1 c0-0.1,0.1-0.1,0.3-0.1c0,0,0,0,0,0.1C236.4,487.1,236.2,487.2,236.1,487.1C236.1,487.2,236.1,487.2,236.1,487.1z"></path> <path class="st25" d="M245.9,509.8c2.6,0,5-0.1,7.6-0.3c2.2-0.1,4.5-0.3,6.7-0.5c1.9-0.1,3.7-0.4,5.6-0.6c0.9-0.1,1.9-0.4,2.8-0.5 c0.1,0,0.1,0,0.3-0.1c0.5-1,0.9-2.1,1-3.1c0.1-0.4,0-0.8,0-1.3c0-0.1,0-0.3-0.1-0.1c-1.2,0.6-2.3,0.9-3.6,1.2 c-2.2,0.4-4.4,0.6-6.6,0.8c-1.7,0.1-3.4,0.1-4.9,0.1c-1.3,0-2.5,0-3.7,0c-0.3,0-0.4,0-0.6,0c-0.4,0-0.6-0.1-0.9-0.3 c-1-0.6-2.1-0.9-3.2-1.2c-1.8-0.4-3.5-0.5-5.3-0.6c-3-0.1-5.9-0.3-8.9-0.1c-0.9,0-1.7-0.1-2.6-0.6c-0.4-0.3-0.8-0.6-1-1 c-0.4-0.8-0.9-1.4-1.4-1.9c-0.4-0.4-0.9-0.5-1.4-0.4c-1.2,0.4-2.3,0.8-3.5,1.2c-1.3,0.5-2.7,1-4,1.4h-0.1c-0.8,0.3-0.8,0.4-0.8,1.2 c-0.1,1.7-0.1,3.4,0,5l0,0c0,0.6,0,0.6,0.6,0.8c2.2,0.1,4.3,0.4,6.5,0.5c2.1,0.1,4,0.3,6.1,0.4c1.8,0.1,3.7,0.1,5.6,0.3 C239.2,509.8,242.6,509.8,245.9,509.8z"></path> <path class="st26" d="M231.5,499.1c0.9,0,1.8-0.3,2.7-0.5c0.9-0.3,1.8-0.4,2.8-0.5c0.6,0,1.3,0,1.9,0c0.8,0,1.7,0.1,2.5,0.4 c1.3,0.3,2.7,0.8,3.9,1.3c1,0.4,1.9,0.9,3,1.6c0.5,0.4,1.2,0.6,1.7,1c0.6,0.4,1.3,0.6,1.9,0.8c0.9,0.3,1.7,0.3,2.6,0.3 c1.3,0,2.6-0.3,3.7-0.6c1.3-0.4,2.6-0.9,3.9-1.4c0.9-0.3,1.8-0.6,2.7-0.8c0.5,0,0.9-0.3,1-0.9c0.1-0.4,0-0.6-0.1-1 c-0.1-0.5-0.5-0.9-0.8-1.4c0-0.1-0.1-0.1-0.3-0.1c-1.4-0.4-2.7-0.8-4.1-1c-0.4-0.1-0.4-0.1-0.6,0.3c-0.6,1-1.7,1.6-2.8,1.7 c-1.3,0-2.6-0.5-3.7-1c-0.8-0.4-1.4-0.9-2.2-1.4c-1-0.8-2.1-1.6-3.1-2.3c-0.8-0.5-1.6-1-2.2-1.6c-0.8-0.5-1.7-1.2-2.5-1.7 c-0.5-0.4-1-0.4-1.6-0.5c-1-0.3-2.1-0.5-3-1.2c-0.4-0.3-0.9-0.6-1.2-1c-0.1-0.1-0.3-0.1-0.4-0.1c-0.9,0.5-1.8,0.9-2.6,1.6 c-0.8,0.5-1.4,1-2.1,1.7c-0.5,0.5-0.9,1-1.4,1.6c-0.8,0.8-1.7,1.6-2.8,1.9c-1.2,0.4-2.2,0.1-3.1-1.2c-0.6-0.9-1-2.1-1.2-3.2 c0-0.3-0.1-0.5-0.1-0.8c0-0.1-0.1-0.1-0.1-0.1c-1,0.5-1.9,1.2-2.5,2.3c-0.3,0.6-0.5,1.3-0.8,1.9c0,0.1,0,0.3,0.1,0.3 c0.9,0,1.6,0.4,2.3,0.8c0.8,0.5,1.4,1.2,2.2,1.8c0.9,0.8,1.7,1.7,2.7,2.3C228.7,498.5,230,499.1,231.5,499.1z"></path> <path class="st25" d="M253,494.9c0.3,0,0.6-0.3,0.9-0.6c0.3-0.4,0.5-0.6,0.8-1.2c0-0.1,0-0.1,0-0.3c-0.1-0.6-0.6-1-1.2-1.2 c-0.1,0-0.1,0-0.3,0.1c-0.4,0.5-0.8,0.9-1,1.6c0,0.1-0.1,0.3-0.1,0.3C251.9,494.3,252.3,494.9,253,494.9z"></path> <path class="st25" d="M249.3,492c0,0.6,0.6,1,1.2,0.8c0.3-0.1,0.4-0.3,0.6-0.4c0.3-0.3,0.5-0.6,0.6-1c0.3-0.5,0.1-0.9-0.3-1.3 c-0.3-0.3-0.5-0.4-0.8-0.4c-0.1,0-0.1,0-0.3,0c-0.5,0.6-1,1.2-1.3,1.9C249.3,491.8,249.3,492,249.3,492z"></path> <path class="st25" d="M247.7,490.9c0.1,0,0.4-0.1,0.6-0.3c0.5-0.4,0.8-0.9,1-1.4c0.1-0.1,0-0.3,0-0.4c-0.1-0.5-0.6-0.9-1.2-0.9 c-0.1,0-0.1,0-0.3,0.1c-0.4,0.5-0.9,1-1.2,1.7c0,0.1,0,0.1-0.1,0.3C246.6,490.4,247,490.9,247.7,490.9z"></path> <path class="st25" d="M245,488.9c0.4,0,0.6-0.1,0.8-0.4c0.4-0.4,0.6-0.9,0.9-1.4c0-0.1,0-0.1,0-0.3c-0.1-0.6-0.6-1-1.2-1.2 c-0.1,0-0.3,0-0.3,0.1c-0.3,0.4-0.6,0.8-0.9,1.2c-0.1,0.3-0.3,0.4-0.3,0.6C244,488.3,244.4,488.9,245,488.9z"></path> <path class="st26" d="M250.8,504.9c0.3,0.1,0.3,0.1,0.4-0.1c0-0.1,0.1-0.1,0.3-0.3c0.1-0.3,0.4-0.3,0.6-0.1c0.3,0.1,0.4,0.1,0.5,0 c0.4-0.3,0.5-0.1,0.8,0.1s0.4,0.5,0.8,0.5c0-0.1,0-0.1-0.1-0.1c-0.1-0.3-0.4-0.4-0.5-0.6c-0.3-0.3-0.5-0.4-0.9-0.1 c-0.1,0.1-0.3,0.1-0.4,0c-0.4-0.1-0.6-0.1-0.9,0.1C251.2,504.5,251,504.6,250.8,504.9z"></path> <path class="st26" d="M233,488.3c0.1,0.1,0.3,0.1,0.3,0.3c0.1,0.1,0.3,0.3,0.4,0.1c0.3-0.3,0.3-0.4,0.3-0.6c0-0.1-0.1-0.1-0.3-0.1 C233.5,488.1,233.3,488.2,233,488.3z"></path> <path class="st26" d="M236.1,487.1C236.1,487.2,236.1,487.2,236.1,487.1c0.1,0.1,0.3,0,0.3-0.1v-0.1 C236.2,486.9,236.1,486.9,236.1,487.1z"></path> <path class="st24" d="M330.3,502.6c2.3,0,4.7,0,7-0.1c2.1,0,4.3-0.1,6.3-0.3s4-0.3,5.9-0.5c1.8-0.1,3.5-0.4,5.3-0.8 c0.5-0.1,1-0.1,1.6-0.3c0.1,0,0.3-0.1,0.4-0.3c0.6-1.3,1.2-2.7,1.3-4.3c0-0.1,0-0.3,0-0.4c-0.1-0.4,0-0.6,0-1 c0.3-1.9-0.6-3.7-2.3-4.5c-0.8-0.4-1.7-0.5-2.6-0.8c-2.7-0.6-5.3-1.3-7.9-2.2c-0.9-0.4-1.9-0.8-2.8-1.2c-0.1-0.1-0.3-0.1-0.1-0.3 c0.3-0.4,0.1-0.8-0.1-1c-0.3-0.5-0.8-0.8-1.4-0.9c-0.3,0-0.4,0.1-0.5,0.4c-0.1,0.1-0.1,0.3-0.3,0.3c-0.1-0.1-0.4-0.3-0.5-0.4 c-0.1,0,0-0.1,0-0.1c0.1-0.3,0.1-0.5,0.1-0.8c-0.3-0.8-0.9-1.2-1.6-1.3c-0.3,0-0.4,0.1-0.5,0.4c-0.1,0.1-0.1,0.3-0.3,0.1 s-0.4-0.1-0.3-0.4c0.3-0.4,0.1-0.9-0.4-1.4c-0.4-0.4-0.8-0.5-1.2-0.5c-0.3,0-0.4,0.1-0.5,0.4c-0.1,0.1-0.3,0.3-0.4,0 c0,0-0.1-0.1-0.3-0.1s-0.1-0.1,0-0.3c0.3-0.6,0.1-1.2-0.4-1.6c-0.3-0.3-0.6-0.4-1-0.5c-0.3,0-0.4,0.1-0.5,0.4 c-0.1,0.1-0.3,0.1-0.4,0c-1.3-0.9-2.6-1.9-3.9-2.8c-0.3-0.1-0.5-0.3-0.6-0.4c-0.3-0.1-0.4-0.1-0.5,0.1c-0.9,1-1.7,2.1-2.3,3.2 c0,0.1-0.1,0.1-0.3,0.1c-0.6,0.3-1.3,0.4-1.8,0.8c-1.8,0.9-3.7,1.6-5.6,2.7c-1.6,1-3,0.4-4-1c-0.5-0.8-0.8-1.7-0.8-2.6 c0-0.4-0.1-0.6-0.3-0.9c-0.3-0.5-0.8-0.8-1.4-0.6c-0.8,0.1-1.4,0.5-2.1,0.9c-0.1,0-0.1,0.1-0.1,0.3c-0.5,0.9-0.8,2.1-0.9,3.1 c-0.1,0.4-0.1,0.9-0.1,1.3c0,0.1,0,0.1-0.1,0.3c-1.2,2.3-1.9,4.9-2.2,7.5c-0.1,1.2-0.3,2.5-0.1,3.6c0,0.1,0,0.3-0.1,0.4 c-0.3,0.3-0.5,0.5-0.5,0.9c-0.1,1.7-0.1,3.5,0,5.2c0,0.4,0.1,0.6,0.1,1c0,0.3,0.1,0.4,0.4,0.4c2.7,0.3,5.6,0.4,8.3,0.6 c2.7,0.1,5.4,0.3,8.1,0.4C324.3,502.4,327.3,502.6,330.3,502.6z M333.4,502.2c-3.4,0-6.7,0-10.1-0.1c-1.8,0-3.7-0.1-5.6-0.3 c-2.1-0.1-4-0.3-6.1-0.4c-2.2-0.1-4.3-0.3-6.5-0.5c-0.6,0-0.6,0-0.6-0.8l0,0c-0.1-1.7-0.1-3.4,0-5c0-0.8,0.1-0.9,0.8-1.2h0.1 c1.4-0.4,2.7-0.9,4-1.4c1.2-0.4,2.3-0.9,3.5-1.2c0.5-0.1,1-0.1,1.4,0.4c0.6,0.5,1,1.2,1.4,1.9c0.3,0.5,0.5,0.8,1,1 c0.8,0.5,1.7,0.6,2.6,0.6c3-0.1,5.9,0,8.9,0.1c1.8,0.1,3.6,0.3,5.3,0.6c1.2,0.3,2.2,0.5,3.2,1.2c0.3,0.1,0.5,0.3,0.9,0.3 c0.3,0,0.4,0,0.6,0c1.3,0,2.5,0,3.7,0c1.7,0,3.4,0,4.9-0.1c2.2-0.1,4.4-0.3,6.6-0.8c1.3-0.3,2.5-0.5,3.6-1.2c0.3-0.1,0.1,0,0.1,0.1 c0,0.4,0.1,0.9,0,1.3c-0.3,1.2-0.6,2.2-1,3.1c0,0.1-0.1,0.1-0.3,0.1c-0.9,0.1-1.9,0.4-2.8,0.5c-1.8,0.3-3.7,0.5-5.6,0.6 c-2.2,0.3-4.5,0.4-6.7,0.5C338.5,502,336,502.2,333.4,502.2z M318.9,491.4c-1.4,0-2.7-0.5-3.7-1.3c-0.9-0.6-1.8-1.4-2.7-2.3 c-0.6-0.6-1.4-1.3-2.2-1.8c-0.6-0.5-1.4-0.8-2.3-0.8c-0.1,0-0.1,0-0.1-0.3c0.3-0.6,0.5-1.3,0.8-1.9c0.5-1.2,1.4-1.8,2.5-2.3 c0.1,0,0.1,0,0.1,0.1c0,0.3,0.1,0.5,0.1,0.8c0.3,1.2,0.5,2.2,1.2,3.2c0.9,1.2,1.8,1.6,3.1,1.2c1.2-0.4,1.9-1,2.8-1.9 c0.5-0.5,0.9-1,1.4-1.6c0.6-0.6,1.4-1.2,2.1-1.7c0.9-0.5,1.7-1,2.6-1.6c0.1-0.1,0.3,0,0.4,0.1c0.4,0.4,0.8,0.8,1.2,1 c0.9,0.5,1.9,0.9,3,1.2c0.5,0.1,1,0.1,1.6,0.5c0.8,0.6,1.6,1.2,2.5,1.7c0.8,0.5,1.6,1,2.2,1.6c1,0.8,2.1,1.6,3.1,2.3 c0.6,0.5,1.4,1,2.2,1.4c1.2,0.6,2.3,1.2,3.7,1c1.2,0,2.2-0.5,2.8-1.7c0.3-0.4,0.3-0.4,0.6-0.3c1.4,0.4,2.7,0.8,4.1,1 c0.1,0,0.1,0,0.3,0.1c0.3,0.5,0.6,0.9,0.8,1.4c0.1,0.4,0.3,0.6,0.1,1c-0.1,0.6-0.6,0.8-1,0.9c-0.9,0.1-1.8,0.4-2.7,0.8 c-1.3,0.5-2.6,1-3.9,1.4c-1.3,0.4-2.5,0.6-3.7,0.6c-0.9,0-1.7-0.1-2.6-0.3c-0.6-0.1-1.4-0.4-1.9-0.8c-0.5-0.4-1.2-0.8-1.7-1 c-0.9-0.6-1.9-1-3-1.6c-1.3-0.5-2.6-1-3.9-1.3c-0.8-0.1-1.7-0.4-2.5-0.4c-0.6,0-1.3,0-1.9,0c-0.9,0-1.8,0.3-2.8,0.5 C320.7,491.2,319.8,491.4,318.9,491.4z M340.5,487.2c-0.8,0-1.2-0.5-1-1.2c0-0.1,0.1-0.3,0.1-0.3c0.3-0.6,0.6-1,1-1.6 c0,0,0.1-0.1,0.3-0.1c0.5,0,1.2,0.5,1.2,1.2c0,0.1,0,0.1,0,0.3c-0.1,0.4-0.4,0.8-0.8,1.2C341.1,486.9,340.9,487.2,340.5,487.2z M336.7,484.3c0,0,0-0.1,0-0.3c0.3-0.8,0.8-1.4,1.3-1.9c0-0.1,0.1,0,0.3,0c0.3,0,0.5,0.1,0.8,0.4c0.4,0.4,0.4,0.8,0.3,1.3 c-0.1,0.4-0.4,0.6-0.6,1c-0.1,0.3-0.4,0.4-0.6,0.4C337.4,485.4,336.7,485,336.7,484.3z M335.2,483.3c-0.8,0-1.2-0.5-0.9-1.2 c0-0.1,0-0.1,0.1-0.3c0.3-0.6,0.6-1.2,1.2-1.7c0.1-0.1,0.1-0.1,0.3-0.1c0.5,0,1,0.4,1.2,0.9c0,0.1,0.1,0.3,0,0.4 c-0.3,0.5-0.6,1-1,1.4C335.6,483.2,335.3,483.3,335.2,483.3z M332.6,481.2c-0.6,0-1-0.5-0.8-1.2c0-0.3,0.1-0.5,0.3-0.6 c0.3-0.4,0.5-0.8,0.9-1.2c0.1-0.1,0.1-0.1,0.3-0.1c0.5,0,1,0.5,1.2,1.2c0,0.1,0,0.1,0,0.3c-0.3,0.5-0.5,1-0.9,1.4 C333.1,481.1,332.9,481.2,332.6,481.2z M338.3,497.1c0.1-0.3,0.4-0.4,0.5-0.5c0.3-0.3,0.5-0.4,0.9-0.1c0.1,0.1,0.3,0,0.4,0 c0.4-0.3,0.6-0.1,0.9,0.1c0.3,0.3,0.4,0.4,0.5,0.6l0.1,0.1c-0.4,0-0.5-0.3-0.8-0.5c-0.3-0.3-0.4-0.4-0.8-0.1c-0.1,0.1-0.4,0.1-0.5,0 c-0.3-0.1-0.4-0.1-0.6,0.1c-0.1,0.1-0.1,0.1-0.3,0.3C338.7,497.3,338.5,497.4,338.3,497.1z M320.6,480.7c0.3-0.1,0.5-0.3,0.6-0.4 c0.1,0,0.1,0,0.3,0.1c0.1,0.3,0,0.4-0.3,0.6c-0.3,0.1-0.3,0-0.4-0.1C320.7,480.9,320.7,480.9,320.6,480.7z M323.6,479.4 c0-0.1,0.1-0.1,0.3-0.1c0,0,0,0,0,0.1C323.8,479.4,323.7,479.6,323.6,479.4C323.6,479.6,323.6,479.4,323.6,479.4z"></path> <path class="st25" d="M333.4,502.2c2.6,0,5-0.1,7.6-0.3c2.2-0.1,4.5-0.3,6.7-0.5c1.9-0.1,3.7-0.4,5.6-0.6c0.9-0.1,1.9-0.4,2.8-0.5 c0.1,0,0.1,0,0.3-0.1c0.5-1,0.9-2.1,1-3.1c0.1-0.4,0-0.8,0-1.3c0-0.1,0-0.3-0.1-0.1c-1.2,0.6-2.3,0.9-3.6,1.2 c-2.2,0.4-4.4,0.6-6.6,0.8c-1.7,0.1-3.4,0.1-4.9,0.1c-1.3,0-2.5,0-3.7,0c-0.3,0-0.4,0-0.6,0c-0.4,0-0.6-0.1-0.9-0.3 c-1-0.6-2.1-0.9-3.2-1.2c-1.8-0.4-3.5-0.5-5.3-0.6c-3-0.1-5.9-0.3-8.9-0.1c-0.9,0-1.7-0.1-2.6-0.6c-0.4-0.3-0.8-0.6-1-1 c-0.4-0.8-0.9-1.4-1.4-1.9c-0.4-0.4-0.9-0.5-1.4-0.4c-1.2,0.4-2.3,0.8-3.5,1.2c-1.3,0.5-2.7,1-4,1.4h-0.1c-0.8,0.3-0.8,0.4-0.8,1.2 c-0.1,1.7-0.1,3.4,0,5l0,0c0,0.6,0,0.6,0.6,0.8c2.2,0.1,4.3,0.4,6.5,0.5c2.1,0.1,4,0.3,6.1,0.4c1.8,0.1,3.7,0.1,5.6,0.3 C326.8,502.2,330,502.2,333.4,502.2z"></path> <path class="st26" d="M318.9,491.4c0.9,0,1.8-0.3,2.7-0.5c0.9-0.3,1.8-0.4,2.8-0.5c0.6,0,1.3,0,1.9,0c0.8,0,1.7,0.1,2.5,0.4 c1.3,0.3,2.7,0.8,3.9,1.3c1,0.4,1.9,0.9,3,1.6c0.5,0.4,1.2,0.6,1.7,1c0.6,0.4,1.3,0.6,1.9,0.8c0.9,0.3,1.7,0.3,2.6,0.3 c1.3,0,2.6-0.3,3.7-0.6c1.3-0.4,2.6-0.9,3.9-1.4c0.9-0.3,1.8-0.6,2.7-0.8c0.5,0,0.9-0.3,1-0.9c0.1-0.4,0-0.6-0.1-1 c-0.1-0.5-0.5-0.9-0.8-1.4c0-0.1-0.1-0.1-0.3-0.1c-1.4-0.4-2.7-0.8-4.1-1c-0.4-0.1-0.4-0.1-0.6,0.3c-0.6,1-1.7,1.6-2.8,1.7 c-1.3,0-2.6-0.5-3.7-1c-0.8-0.4-1.4-0.9-2.2-1.4c-1-0.8-2.1-1.6-3.1-2.3c-0.8-0.5-1.6-1-2.2-1.6c-0.8-0.5-1.7-1.2-2.5-1.7 c-0.5-0.4-1-0.4-1.6-0.5c-1-0.3-2.1-0.5-3-1.2c-0.4-0.3-0.9-0.6-1.2-1c-0.1-0.1-0.3-0.1-0.4-0.1c-0.9,0.5-1.8,0.9-2.6,1.6 c-0.8,0.5-1.4,1-2.1,1.7c-0.5,0.5-0.9,1-1.4,1.6c-0.8,0.8-1.7,1.6-2.8,1.9c-1.2,0.4-2.2,0.1-3.1-1.2c-0.6-0.9-1-2.1-1.2-3.2 c0-0.3-0.1-0.5-0.1-0.8c0-0.1-0.1-0.1-0.1-0.1c-1,0.5-1.9,1.2-2.5,2.3c-0.3,0.6-0.5,1.3-0.8,1.9c0,0.1,0,0.3,0.1,0.3 c0.9,0,1.6,0.4,2.3,0.8c0.8,0.5,1.4,1.2,2.2,1.8c0.9,0.8,1.7,1.7,2.7,2.3C316.2,490.9,317.5,491.4,318.9,491.4z"></path> <path class="st25" d="M340.5,487.2c0.3,0,0.6-0.3,0.9-0.6s0.5-0.6,0.8-1.2c0-0.1,0-0.1,0-0.3c-0.1-0.6-0.6-1-1.2-1.2 c-0.1,0-0.1,0-0.3,0.1c-0.4,0.5-0.8,0.9-1,1.6c0,0.1-0.1,0.3-0.1,0.3C339.3,486.7,339.7,487.2,340.5,487.2z"></path> <path class="st25" d="M336.7,484.3c0,0.6,0.6,1,1.2,0.8c0.3-0.1,0.4-0.3,0.6-0.4c0.3-0.3,0.5-0.6,0.6-1c0.3-0.5,0.1-0.9-0.3-1.3 c-0.3-0.3-0.5-0.4-0.8-0.4c-0.1,0-0.1,0-0.3,0c-0.5,0.6-1,1.2-1.3,1.9C336.7,484.2,336.7,484.3,336.7,484.3z"></path> <path class="st25" d="M335.2,483.3c0.1,0,0.4-0.1,0.6-0.3c0.5-0.4,0.8-0.9,1-1.4c0.1-0.1,0-0.3,0-0.4c-0.1-0.5-0.6-0.9-1.2-0.9 c-0.1,0-0.1,0-0.3,0.1c-0.4,0.5-0.9,1-1.2,1.7c0,0.1,0,0.1-0.1,0.3C334.2,482.8,334.4,483.3,335.2,483.3z"></path> <path class="st25" d="M332.6,481.2c0.4,0,0.6-0.1,0.8-0.4c0.4-0.4,0.6-0.9,0.9-1.4c0-0.1,0-0.1,0-0.3c-0.1-0.6-0.6-1-1.2-1.2 c-0.1,0-0.3,0-0.3,0.1c-0.3,0.4-0.6,0.8-0.9,1.2c-0.1,0.3-0.3,0.4-0.3,0.6C331.6,480.7,331.8,481.2,332.6,481.2z"></path> <path class="st26" d="M338.3,497.1c0.3,0.1,0.3,0.1,0.4-0.1c0-0.1,0.1-0.1,0.3-0.3c0.1-0.3,0.4-0.3,0.6-0.1s0.4,0.1,0.5,0 c0.4-0.3,0.5-0.1,0.8,0.1s0.4,0.5,0.8,0.5c0-0.1,0-0.1-0.1-0.1c-0.1-0.3-0.4-0.4-0.5-0.6c-0.3-0.3-0.5-0.4-0.9-0.1 c-0.1,0.1-0.3,0.1-0.4,0c-0.4-0.1-0.6-0.1-0.9,0.1C338.7,496.7,338.5,497,338.3,497.1z"></path> <path class="st26" d="M320.6,480.7c0.1,0.1,0.3,0.1,0.3,0.3c0.1,0.1,0.3,0.3,0.4,0.1c0.3-0.3,0.3-0.4,0.3-0.6c0-0.1-0.1-0.1-0.3-0.1 C321,480.5,320.8,480.6,320.6,480.7z"></path> <path class="st26" d="M323.6,479.4C323.6,479.4,323.6,479.6,323.6,479.4c0.1,0.1,0.3,0,0.3-0.1v-0.1 C323.7,479.3,323.6,479.3,323.6,479.4z"></path> <path class="st27" d="M277.2,156.2c0,0,7.5,1.4,12,17.1c0,0,1.6,6.7,6.3,9.2c0,0,3,1-2.3,4c-5.3,3-3.5,8.3-5.2,12.9 c-1.7,4.8-10.9,3.4-12.8,4.9c-2.1,1.6,3,17.4,6.3,21.1c3.4,3.6-22.2,8.4-23.4,2.7c-1.3-5.7-3.1-5-3.1-5s9.2,0.8,6.3-19.2 c0,0-9.6-5.3-10.2-12.3C250.2,184.7,248.2,157.1,277.2,156.2z"></path> <path class="st22" d="M277.2,217.1c0,0,1.2,8-7.6,8c-8.8,0-9.4-5.9-9.4-5.9l-3.5,3.9l8.7,8.7l16.9-5.3l-3.2-5.7L277.2,217.1z"></path> <path class="st22" d="M286.6,166.4c0,0-4.1,4.7-15.6,6.3c0,0-3-0.1-2.7,3.5s-2.2,11-2.2,11s-3.5-6.5-7.4-3.7 c-3.9,2.7-0.3,15.5-0.3,15.5s-14.7-19.9-10.2-27C252.8,164.9,286.9,155.1,286.6,166.4z"></path> <path class="st23" d="M300.7,141.3c0,0,0.8,22.3-24.2,28.8c0,0-13.4-1.9-10.5,8.1c0,0,1.3,3.7,0.1,8.9c0,0-1.7-9.7-8.5-5.3 c0,0-3.9,2.8-1.3,9.4c2.6,6.6,2.6,11.1,2.6,11.1s-30.9-1.4-19.4-31.1c0,0-3.4-21.4,15.6-24.9S275.5,158.6,300.7,141.3z"></path> <path class="st28" d="M259.6,220.3c0,0,0,10.3,14.5,5.3c3-1,4.7-4.1,3.6-7.1c0-0.1-0.1-0.3-0.1-0.4c0,0,1.2-0.5,3.6,0.3 c3,0.9,14.9,0.3,22.5-0.3c7.6-0.5,35.3,46.2,35.3,46.2l-6.6,13.7l-18-13.8l3.1,49.1c0,0-9.9,11.8-43.9,9.8s-32.3-4.9-32.3-4.9 l2.8-89.5C244.2,228.7,260.1,218.5,259.6,220.3z"></path> <path class="st29" d="M282,354.5c-0.6-2.3-0.4-4.9,1-7l87.2-131c2.6-3.9,7.8-4.9,11.6-2.3s4.9,7.8,2.3,11.6l-87.2,131 c-2.6,3.9-7.8,4.9-11.6,2.3C283.8,358,282.6,356.3,282,354.5z"></path> <path class="st29" d="M341.5,184.1c-4.3-14.3-4.4-30.1,0.6-45.3c6.3-19.2,19.8-34.7,37.8-43.9s38.6-10.6,57.7-4.4 c39.7,13,61.4,55.9,48.3,95.6c-6.3,19.2-19.8,34.7-37.8,43.9c-18.1,9.2-38.6,10.6-57.7,4.4C365.9,226.2,348.4,207,341.5,184.1z M470.6,145.5c-5.4-17.8-19.1-32.9-38.1-39.1c-15-4.9-31-3.7-45.1,3.4c-14.1,7.1-24.5,19.2-29.5,34.2c-4.9,15-3.7,31,3.4,45.1 c7.1,14.1,19.2,24.5,34.2,29.5c15,4.9,31,3.7,45.1-3.4c14.1-7.1,24.5-19.2,29.5-34.2C474,168.9,473.9,156.6,470.6,145.5z"></path> <path class="st30" d="M242.7,280.6c0,0-3.5,20.3,7.4,24.3c10.6,3.9,50.9,6.3,50.9,6.3l-15.9-13.8L242.7,280.6z"></path> <path class="st27" d="M298.2,296.8l8.8,3c0,0,3.4,0.6,9.6-2.6c0,0,0.1,12.5,15.4,9.8c0,0,4.8-0.8-1.6,9.4 c-6.5,10.1-12.8,10.1-24.3-2.7c0,0-7.4-4-15.8-7.9C282,302.1,298.2,296.8,298.2,296.8z"></path> <path class="st30" d="M304.1,298.8l-46.2-15.6l3.1-32.7c0,0,1.4,26.9,4.3,28.7C275.1,285.9,301.3,290.1,304.1,298.8z"></path> <path class="st28" d="M260.9,250.5c-1.7,11.9,0.3,31.5,0.3,31.5c13.4,2.5,38.4,13.6,38.4,13.6c0.8,7.6-5.3,14.2-5.3,14.2 s-35.8-6.3-45.9-11.2c-10.1-4.9-12-60.2-10.6-64.2c1.4-4,10.6-7.9,10.6-7.9"></path> <path class="st31" d="M313.1,242.9l1.3,21.3l11,8.4C325.4,272.6,318.4,265.5,313.1,242.9z"></path> <path class="st27" d="M603.9,233.2c0,0-8.5,1.9-11.2,14.6c0,0-2.5,5-9.9,6.7c0,0-1.8,1,0,2.5c1.8,1.4,4.7,1.6,4.3,3 c-0.4,1.4-3.5,9.8-0.3,12.8c5,4.7,20.5,5.7,19.8,10.5c-0.8,4.8-9.3,13.2-9.3,13.2s3.9,10.7,20.3,1.2l6.7-13.6l14.2-26.7 C638.5,257.3,614.3,224.3,603.9,233.2z"></path> <path class="st22" d="M602.2,234.8c0,0-2.6,9.2,1.4,15.2c3.9,6.1,15.5,8.3,17.8,13.3l2.5,0.1c0,0,3.7-4.9,5.8,1 c2.1,5.9,3.1-19.4,3.1-19.4S603.7,226.9,602.2,234.8z"></path> <path class="st15" d="M614.3,255.8c0,0,10.9,4.7,5.7,11.5c0,0,6.5-2.7,4.8-12.3C623.1,245.6,614.3,255.8,614.3,255.8z"></path> <path class="st22" d="M623.8,271.8c0,0-8.8,9.6-8.9,22c0,0,0.8,3.6-2.5,3.9c-3.2,0.4-7.4,1-12.5-4l-2.3,2.7c0,0,7.9,6.2,20.2,2.2 l2.1-3.2L623.8,271.8z"></path> <path class="st15" d="M597.9,237.1c0,0,5.7-4.9,5.7-0.6c0,4.3-1.8,16.8,16.8,21.3c18.6,4.5,3.5,14,3.5,14s-11.1,21.7-4.8,27.3 c6.3,5.6,13,14.3,13,14.3s-2.5-4.4,3.5-4.7c5.9-0.3,4-4.8,1.4-12.9c-4.8-14.7,15.5-1.3,8.5-22.9c0,0-1.7-9.9,0.9-13.8 c2.6-3.9-3-42.9-40.8-32.4C605.5,226.8,599.7,229.1,597.9,237.1z"></path> <path class="st27" d="M599.3,293.9c0,0-13.2-5.7-18.9,2.3c-6.3,9-16.8,28.5-16.8,28.5s-3.4-2.3-20.7-18.5l-11.2-12.7 c0,0,0.3-5.7-1.4-10.6c-1.8-5.8,2.7-11.4,2.7-11.4s-1.9-3-5.6,1.8c0,0-1.2,1.8-0.8,4.7c0,0-7.5-9.2-10.3,1 c-1.8,6.8-8.9,9.9,6.2,16.4c0,0,21.4,36.4,25.2,41.2c3.7,4.8,18.7,5.8,22.9,0.5C574.9,332,599.3,293.9,599.3,293.9z"></path> <path class="st22" d="M579.2,312.7c0,0-9.8,19.5-15.2,21.4s-22.6-7.2-22.6-7.2l20,22.2l11.1-12.4L579.2,312.7z"></path> <path class="st22" d="M521.5,273.5c0,0,5.2,2.6,5.6,7.8s-8.7,8.8-5.8,13.7c0,0-10.1-4.9-9.9-9.7 C511.5,280.5,521.5,273.5,521.5,273.5z"></path> <path class="st28" d="M599.3,293.9c0,0,1.2,8.3,19.2,3.6c0,0,5.9,3.4,18.3,7.8c0,0-11.2,0.3-14.6,25.4c0,0,1.6,19.8-3.5,62.9 c0,0-1.3-9.8-14.3-8.8c-13,1-33.3-6.7-33.3-6.7l-7-21.7c0,0,6.1-12.5,8.5-28.9c1-7.1,18.6-35.5,18.6-35.5S595,292.3,599.3,293.9z"></path> <path class="st32" d="M627.1,313.1c0,0-4.8,5.3-9.2,28.5c-1.4,7.4-10.1,17.7-19.4,20c-14.9,3.7-39,9.3-39,9.3l16.4,4l45.9-14.7 C621.7,360.2,632.5,312.7,627.1,313.1z"></path> <path class="st33" d="M620.9,371.6l-0.9,9.7c0,0-9.9-6.7-25.4-5.8c0,0-3.1-0.1-8.7,3.9s-3.5-6.8-3.5-6.8S622.3,364.3,620.9,371.6z"></path> <path class="st27" d="M361.4,262.9c0.5-1.2,0.3-2.5-0.5-3.4c-1.7-1.8-4.5-4.4-6.3-1.7c-2.6,3.9-5.3,7.4-3.1,10.9 C353.4,272.1,357.8,271.3,361.4,262.9z"></path> <path class="st27" d="M636.9,305.3c0,0,8,0.3,7.5,11.1c-0.5,10.9-15.1,52.4-15.1,52.4s0.3,2.7-11.6,2.8c-12,0.3-27.1,0.6-27.1,0.6 s-8,8.8-17.8,8.8c-9.7,0.1-2.7-11.5-2.7-11.5s12.8-1.9,16.9-3.9c4.3-1.9,29.2-7.6,29.2-7.6l6.1-27.4 C622.2,330.8,624.7,306.9,636.9,305.3z"></path> <path class="st34" d="M510.7,382.4H589c1.4,0,2.5-1.2,2.5-2.5l0,0c0-1.4-1.2-2.5-2.5-2.5h-78.3c-1.4,0-2.5,1.2-2.5,2.5l0,0 C508.3,381.4,509.4,382.4,510.7,382.4z"></path> <path class="st35" d="M510.7,382.4H589c0.9,0,1.7-0.5,2.1-1.2c-0.4-0.6-1.2-1.2-2.1-1.2h-78.3c-0.9,0-1.7,0.5-2.1,1.2 C509.2,382,510,382.4,510.7,382.4z"></path> <path class="st35" d="M508.8,377.5h62.6c1.8,0,3.1-1.4,2.8-3.2l-5-40.6c-0.3-1.8-1.8-3.2-3.6-3.2H503c-1.8,0-3.1,1.4-2.8,3.2l5,40.6 C505.4,376,507.1,377.5,508.8,377.5z"></path> <path class="st36" d="M508.8,377.5h60.7c1.8,0,3.1-1.4,2.8-3.2l-5-40.6c-0.3-1.8-1.8-3.2-3.6-3.2H503c-1.8,0-3.1,1.4-2.8,3.2l5,40.6 C505.4,376,507.1,377.5,508.8,377.5z"></path> <path class="st37" d="M512.2,377.5h6.2l49.3-41.5l-0.3-2.3c-0.1-0.8-0.4-1.4-0.9-1.9L512.2,377.5L512.2,377.5z M559.6,330.5 l-53.9,45.2c-0.3-0.4-0.4-0.9-0.5-1.4l-0.8-6.3l44.7-37.5H559.6z"></path> <path class="st36" d="M574.8,382.4H589c1.4,0,2.5-1.2,2.5-2.5l0,0c0-1.4-1.2-2.5-2.5-2.5h-14.2c-1.4,0-2.5,1.2-2.5,2.5l0,0 C572.3,381.4,573.5,382.4,574.8,382.4z"></path> <path class="st38" d="M509.6,378.7h65.1c0.6,0,1.3-0.5,1.3-1.3l0,0c0-0.6-0.5-1.3-1.3-1.3h-65.1c-0.6,0-1.3,0.5-1.3,1.3l0,0 C508.3,378.2,508.9,378.7,509.6,378.7z"></path> <path class="st39" d="M535,347.7c3.5,0,6.6,2.8,6.8,6.2c0.4,3.5-2.2,6.2-5.6,6.2c-3.5,0-6.6-2.8-6.8-6.2 C529.1,350.5,531.7,347.7,535,347.7z"></path> <path class="st27" d="M511,280.1c0,0,7.8-12.4,12.5-4.4c0,0,4.4,5,0.5,9.4c-1,1.2-2.3,2.3-3.9,3.4 C514.6,292.1,507.9,286.1,511,280.1C511,280.2,511,280.1,511,280.1z"></path> <path d="M503.6,477.6c-0.4,1.6-0.8,3.1-1.3,4.5c-1.3,4.3-2.6,8.4-4,12.7c-0.6,2.1-1.4,4-2.2,6.1c-1.2,3.4-3.5,5.7-6.6,7.2 c-1.8,0.9-3.6,1.6-5.6,2.1c-4,1-8.1,1.9-12.1,3c-0.6,0.1-1.2,0.4-1.7,0.6c-1,0.5-1.2,1.7-0.1,2.2c1.4,0.8,3,1.4,4.5,1.9 c7.5,2.5,15,4.3,22.7,5.7c1.6,0.3,3.2,0.4,4.8,0.4c2.2,0,3.7-1.2,4.7-3c1.2-2.3,2.3-4.7,3.5-7c0.1-0.3,0.3-0.5,0.3-0.8 c1.4-6.5,2.8-12.8,4.3-19.2c0.5-2.6,1.2-5,1.7-7.6c0.1-0.9,0.3-1.8,0.3-2.7c0-1.6-0.6-2.6-2.2-3c-1.9-0.5-3.9-1-5.8-1.6 c-1.4-0.4-2.7-0.8-4.1-1C504.1,477.8,503.9,477.6,503.6,477.6z"></path> <path d="M528.7,474.7c-0.4,0.4-0.8,0.6-1,0.8c-3.1,2.7-6.6,5-10.3,7c-0.3,0.1-0.4,0.5-0.5,0.8c-0.3,1.6-0.3,3.1-0.6,4.7 c-0.9,4.5-1.9,9-3,13.6c-0.8,3.5-1.6,7-2.3,10.3c0,0.3-0.1,0.5-0.1,0.9c0.4-0.5,0.6-0.9,0.9-1.3c3-4,6.6-7.2,11.4-8.9 c1.7-0.6,3.2-1.4,4.9-2.1c3.4-1.3,4.3-3.9,4.3-7.1c0-1.8-0.5-3.6-1.3-5.3c-1.9-4.1-3-8.5-2.3-13C528.7,475.2,528.7,475,528.7,474.7z "></path> <path d="M521.3,525.7c0.5,0.1,1,0.1,1.7,0.3c0.1-1,0.3-1.9,0.5-2.8c0.9-6.2,2.5-12.3,4.7-18.2c0.8-1.8,1.6-3.6,2.3-5.3 c-2.3,1-4.8,2.2-7.2,3.4c1.4,4.8,0.4,9.4-0.4,14.2c-0.4,2.6-0.9,5.2-1.4,7.9C521.5,525.3,521.3,525.4,521.3,525.7z"></path> <path d="M545.4,482.9c0.3,1.3,0.4,2.6,0.6,3.9c0.5,3.6,1,7.4,1.4,11c0.3,1.8,0.3,3.6,0.5,5.3c0.3,3-0.6,5.6-2.5,7.9 c-1,1.3-2.2,2.5-3.5,3.6c-2.7,2.2-5.6,4.4-8.3,6.6c-0.4,0.3-0.8,0.6-1,1c-0.6,0.8-0.3,1.7,0.8,1.7c1.4,0,2.7,0,4.1-0.1 c6.5-0.8,12.9-2.1,19.2-3.7c1.3-0.4,2.6-0.8,3.7-1.4c1.7-0.8,2.5-2.2,2.5-3.9c0-2.2,0.1-4.4,0.1-6.5c0-0.3,0-0.5-0.1-0.8 c-1.2-5.4-2.3-10.7-3.6-16.1c-0.5-2.2-0.9-4.3-1.4-6.3c-0.1-0.8-0.5-1.4-0.8-2.2c-0.5-1.3-1.4-1.7-2.8-1.6c-1.7,0.3-3.2,0.5-4.9,0.9 c-1.2,0.3-2.3,0.4-3.5,0.6C545.9,482.8,545.6,482.8,545.4,482.9z"></path> <path d="M563.3,471.8c-0.3,0.4-0.4,0.6-0.5,1c-1.4,3.2-3.2,6.2-5.3,9c-0.1,0.1-0.1,0.5-0.1,0.8c0.4,1.3,0.9,2.5,1.2,3.7 c0.9,3.7,1.7,7.6,2.6,11.4c0.6,2.8,1.3,5.8,1.9,8.7c0,0.1,0.1,0.4,0.3,0.8c0.1-0.5,0.1-0.9,0.3-1.3c0.8-4,2.5-7.8,5.4-10.9 c1-1,1.9-2.2,3-3.2c2.2-2.2,1.9-4.4,0.8-6.8c-0.6-1.4-1.7-2.6-2.8-3.6c-3-2.5-5.2-5.4-6.5-9C563.4,472.2,563.4,472.1,563.3,471.8z"></path> <path d="M575.8,513.1c0.4-0.1,0.9-0.3,1.4-0.4c-0.3-0.8-0.4-1.6-0.6-2.3c-1.4-5-2.5-10.2-2.8-15.5c-0.1-1.7-0.1-3.4-0.1-4.9 c-1.4,1.7-2.8,3.4-4.3,5.2c2.7,3.1,3.6,7.1,4.8,11c0.6,2.2,1.2,4.3,1.7,6.5C575.7,512.8,575.8,512.9,575.8,513.1z"></path> <path class="st40" d="M535.3,415.4l-3.4-5.7l52.1,6.1C584,415.7,543.3,416.8,535.3,415.4z"></path> <ellipse class="st41" cx="783.7" cy="492.1" rx="19.4" ry="6.6"></ellipse> <g> <path class="st8" d="M770.9,406.3c-2.1-7-0.5-14.9,4-20.5c1.2-1.4,2.6-2.8,3.1-4.7c1.6-4.9-3.5-9.4-3.9-14.5 c-0.4-5.3,4.1-9.4,8.1-12.8c2.1-1.7,4.4-3.5,7-3.5c3.4,0,6.1,2.7,7.5,5.7s2.1,6.3,3.5,9.3c1.4,3.1,3.7,5.7,5.4,8.5 c1.7,3,2.8,6.5,1.8,9.7c-1.4,4.3-6.1,6.6-7.6,10.7c-2.5,6.3,3.4,13.8,0.6,20c-1.2,2.7-3.7,4.7-6.5,5.7 C783.7,423.9,774,416.5,770.9,406.3z"></path> </g> <g> <polygon class="st8" points="786.9,419 785,443.5 786.9,443.5 788.2,419 "></polygon> </g> <g> <g> <g> <path class="st42" d="M788.7,354.6c-0.6,10.1-1.3,20-1.7,30.1c-0.4,10.2-1.6,21.6,0.6,31.8c0.1,0.4,0.6,0.3,0.6-0.1 c-1.4-20.5,0-41.2,1-61.7C789.4,354.1,788.7,354.1,788.7,354.6L788.7,354.6z"></path> </g> </g> </g> <g> <g> <g> <path class="st42" d="M782.3,413c0.6,0,0.6-0.9,0-0.9C781.6,412,781.6,413,782.3,413L782.3,413z"></path> </g> </g> </g> <g> <g> <g> <path class="st42" d="M776.4,409c0.3,0.1,0.5,0,0.6-0.1c0.4-0.3-0.1-0.9-0.5-0.6c0,0,0,0-0.1,0 C776.1,408.3,775.9,408.9,776.4,409L776.4,409z"></path> </g> </g> </g> <g> <g> <g> <path class="st42" d="M780.6,403.9c0.6,0,0.6-0.9,0-0.9C779.9,403,779.9,403.9,780.6,403.9L780.6,403.9z"></path> </g> </g> </g> <g> <g> <g> <path class="st42" d="M776.4,399C776.4,399,776.6,399,776.4,399c0.3-0.1,0.3-0.4,0.1-0.5c0,0,0,0-0.1-0.1 c-0.3-0.3-0.8-0.1-0.8,0.3C775.8,399.1,776.2,399.2,776.4,399L776.4,399z"></path> </g> </g> </g> <g> <g> <g> <path class="st42" d="M793.9,411.9C794,411.9,794,411.9,793.9,411.9c0.4-0.3,0.4-0.5,0.1-0.6c0,0-0.1,0-0.1-0.1 C793.2,410.7,793.2,412.4,793.9,411.9L793.9,411.9z"></path> </g> </g> </g> <g> <g> <g> <path class="st42" d="M797.1,410.6c0.3-0.1,0.3-0.1,0.4-0.4c0.1-0.3,0-0.5-0.3-0.5s-0.4,0-0.5,0.1 C796.2,410.1,796.6,410.8,797.1,410.6L797.1,410.6z"></path> </g> </g> </g> <g> <g> <g> <path class="st42" d="M779.8,363.4v0.1c0,0.5,0.9,0.5,0.9,0v-0.1C780.6,362.8,779.8,362.8,779.8,363.4L779.8,363.4z"></path> </g> </g> </g> <g> <g> <g> <path class="st42" d="M781.7,372c0.6,0,0.6-0.9,0-0.9C781.1,371.1,781.1,372,781.7,372L781.7,372z"></path> </g> </g> </g> <g> <g> <g> <path class="st42" d="M785.5,364.9C785.5,364.9,785.6,364.9,785.5,364.9c0.4,0,0.6-0.1,0.5-0.4v-0.1c0-0.4-0.5-0.4-0.8-0.3 C785.1,364.3,785.1,364.7,785.5,364.9L785.5,364.9z"></path> </g> </g> </g> <g> <g> <g> <path class="st42" d="M800.3,378.8C800.5,378.8,800.5,378.9,800.3,378.8c0.5,0.3,1,0,1-0.4s-0.5-0.6-0.9-0.5c0,0-0.1,0-0.1,0.1 C800.1,378.2,800.1,378.7,800.3,378.8L800.3,378.8z"></path> </g> </g> </g> <g> <g> <g> <path class="st42" d="M797.2,386.6c0.4,0,0.6-0.1,0.6-0.5c0.1-0.6-0.8-0.9-1-0.3v0.1C796.7,386.3,797,386.6,797.2,386.6 L797.2,386.6z"></path> </g> </g> </g> <g> <g> <g> <path class="st42" d="M795.6,377.5c0.8,0,0.8-1.2,0-1.2S794.8,377.5,795.6,377.5L795.6,377.5z"></path> </g> </g> </g> <g> <g> <g> <path class="st42" d="M798.1,372.5c0.5,0,0.5-0.9,0-0.9C797.5,371.6,797.5,372.5,798.1,372.5L798.1,372.5z"></path> </g> </g> </g> <path class="st8" d="M811.5,412.1c2.6-1.6,5.7-1.8,8.5-2.6c3.7-1,7.1-3.2,9.7-6.1c2.7-3.1,4.8-7.2,8.7-8.7c4.1-1.7,8.7,0.3,13.2,0.3 c3.9,0,7.6-1.7,11.6-1.8c2.3-0.1,5.2,1.2,4.9,3.4c-0.1,1.4-1.6,2.3-2.7,3c-1.9,1.2-3.7,2.2-5.7,3.4c-2.1,1.3-4.3,2.5-5.9,4.3 c-2.8,3-4.1,7.1-7,10.1c-4.1,4.1-10.6,4.9-16.4,4.5c-3.1-0.3-6.7-0.8-9.2,1.2c-3.6,2.8-9.3,10.9-14.3,4.5 C803.2,422.9,807.2,414.7,811.5,412.1z"></path> <path class="st8" d="M808.9,424.1l-1.2-0.5c0,0-10.2,10.9-10.9,20.8h2.3C799.2,444.6,798,435.9,808.9,424.1z"></path> <g> <g> <path class="st42" d="M809.6,423.2c8.8-4.5,17.3-9.7,26.1-14.2c8.8-4.5,17.8-8.7,26.6-13c0.4-0.3,0.1-0.9-0.3-0.8 c-8.9,3.6-17.4,8.1-26,12.5c-9,4.7-18.2,9.4-26.6,15C809.1,423,809.4,423.5,809.6,423.2L809.6,423.2z"></path> </g> </g> <g> <g> <path class="st42" d="M811.8,416.4c0.6,0,0.6-1,0-1C811.1,415.4,811.1,416.4,811.8,416.4L811.8,416.4z"></path> </g> </g> <g> <g> <path class="st42" d="M817.7,415.4C817.7,415.4,817.8,415.4,817.7,415.4c0.1-0.3,0.1-0.4,0.1-0.5c0,0,0,0-0.1-0.1 c-0.3-0.3-0.8,0-0.8,0.3C816.9,415.4,817.4,415.6,817.7,415.4L817.7,415.4z"></path> </g> </g> <g> <g> <path class="st42" d="M814.6,413.3h0.1c0.3-0.1,0.3-0.4,0-0.4h-0.1C814,412.5,814,413.6,814.6,413.3L814.6,413.3z"></path> </g> </g> <g> <g> <path class="st42" d="M833.4,406.1L833.4,406.1c0-0.4-0.3-0.8-0.6-0.6c-0.1,0-0.3,0.1-0.4,0.4c-0.1,0.4,0.3,0.6,0.6,0.6l0,0 C833.3,406.3,833.4,406.2,833.4,406.1L833.4,406.1z"></path> </g> </g> <g> <g> <path class="st42" d="M836.9,399.6c0.1,0.3,0.4,0.4,0.6,0.5c0.1,0,0.4,0,0.5-0.1c0-0.1,0.1-0.1,0.1-0.3c0.1-0.3,0-0.4-0.3-0.5 s-0.4-0.3-0.6-0.3C837,399,836.8,399.3,836.9,399.6L836.9,399.6z"></path> </g> </g> <g> <g> <path class="st42" d="M841,402.3c0.1,0.1,0.3,0.3,0.5,0.3c0.4,0,0.6-0.4,0.4-0.6c-0.1-0.1-0.3-0.3-0.5-0.3 C841,401.7,840.8,402.1,841,402.3L841,402.3z"></path> </g> </g> <g> <g> <path class="st42" d="M845,399.9c0.1-0.1,0.3-0.1,0.4-0.3c0.1-0.3,0.1-0.5-0.3-0.5c-0.3,0-0.4,0-0.5,0.1 C844.3,399.5,844.6,400.1,845,399.9L845,399.9z"></path> </g> </g> <g> <g> <path class="st42" d="M834.3,417.4c0.3,0.1,0.4,0.1,0.5,0c0.1,0,0.3-0.3,0.3-0.4c-0.1-0.3-0.1-0.4-0.4-0.5 C834.1,416.1,833.5,417.2,834.3,417.4L834.3,417.4z"></path> </g> </g> <g> <g> <path class="st42" d="M841.2,418.2c0.3,0,0.4,0,0.6-0.3c0-0.1,0-0.3,0-0.3c-0.1-0.3-0.3-0.3-0.6-0.3 C840.6,417.4,840.6,418.2,841.2,418.2L841.2,418.2z"></path> </g> </g> <g> <g> <path class="st42" d="M840.4,413.8C840.4,413.8,840.5,413.8,840.4,413.8c0.8-0.5-0.1-1.4-0.6-0.8c0,0,0,0-0.1,0.1 C839.5,413.6,840,414.1,840.4,413.8L840.4,413.8z"></path> </g> </g> <g> <g> <path class="st42" d="M845,412.1c0.4,0,0.4-0.6,0-0.6S844.6,412.1,845,412.1L845,412.1z"></path> </g> </g> <g> <g> <path class="st42" d="M861.8,398.4c0.5,0,0.5-0.8,0-0.8C861.3,397.7,861.3,398.4,861.8,398.4L861.8,398.4z"></path> </g> </g> <g> <g> <path class="st42" d="M812.2,426C812.2,426.1,812.2,426.1,812.2,426c-0.1,0.1-0.1,0.3,0,0.4c0,0,0,0,0,0.1 c0.3,0.3,0.8,0.3,0.8-0.3C813,425.8,812.5,425.7,812.2,426L812.2,426z"></path> </g> </g> <g> <g> <path class="st42" d="M816.1,424.3C816.2,424.3,816.2,424.3,816.1,424.3c0.3-0.3,0.3-0.4,0.1-0.5c0,0,0,0-0.1-0.1 c-0.3-0.3-0.8,0-0.8,0.3S815.8,424.7,816.1,424.3L816.1,424.3z"></path> </g> </g> <g> <g> <g> <path class="st42" d="M782.3,385C782.1,385,782.1,385,782.3,385c-0.1,0.1-0.1,0.3,0,0.4c0,0,0,0,0,0.1c0.3,0.4,0.8,0.3,0.8-0.3 C783,384.7,782.4,384.6,782.3,385L782.3,385z"></path> </g> </g> </g> <g> <g> <g> <path class="st42" d="M791.2,395c0.6,0,0.6-1,0-1C790.5,393.9,790.5,395,791.2,395L791.2,395z"></path> </g> </g> </g> <g> <path class="st8" d="M764.9,408c-2.3-4.9-6.1-9.2-10.7-11.9c-3-1.8-6.3-3.1-9-5.3c-4.4-3.9-6.5-10.2-11.8-12.7 c-1.8-0.8-3.9-1-5.9-1.2c-3.4-0.1-7,0.4-9,3c-1.9,2.3-1.8,5.9-0.3,8.5c2.1,3.5,6.3,5.2,8.8,8.3c4.4,5.6,2.7,14.5,7.5,19.6 c2.8,3.1,7.2,4.1,10.9,6.2c3,1.7,5.6,4.3,8.7,5.6C766.2,432.9,768.4,415.6,764.9,408z"></path> </g> <g> <path class="st8" d="M761.8,422.7l-0.9,0.6c11.1,14.1,12.4,22.1,12.4,22.1h2.6C773,435,761.8,422.7,761.8,422.7z"></path> </g> <g> <g> <g> <path class="st42" d="M723.9,382.7c7.4,4.5,13.3,13.4,18.7,20c5.4,6.6,10.5,14.6,16.8,20.3c0.3,0.3,0.6-0.1,0.4-0.4 c-5.7-7.2-11.6-14.2-17.4-21.3c-5.2-6.3-11-14.9-18.3-18.9C723.9,382.2,723.7,382.6,723.9,382.7L723.9,382.7z"></path> </g> </g> </g> <g> <g> <g> <path class="st42" d="M741.3,415.4c-0.1,0-0.1-0.1-0.3-0.1c-0.1,0-0.4,0.1-0.3,0.3c0,0.1,0.1,0.1,0.1,0.3 C741.2,416.1,741.8,415.5,741.3,415.4L741.3,415.4z"></path> </g> </g> </g> <g> <g> <g> <path class="st42" d="M747.9,419.9C747.9,419.9,747.9,419.8,747.9,419.9c0.1-0.3,0.1-0.3,0.1-0.4c0,0,0,0-0.1-0.1 c-0.3-0.3-0.6,0-0.6,0.3C747.3,419.9,747.6,420.1,747.9,419.9L747.9,419.9z"></path> </g> </g> </g> <g> <g> <g> <path class="st42" d="M745.3,413.7C745.3,413.6,745.3,413.6,745.3,413.7c-0.3-0.4-0.5-0.4-0.6-0.1c0,0,0,0.1-0.1,0.1 C744.2,414.5,745.7,414.5,745.3,413.7L745.3,413.7z"></path> </g> </g> </g> <g> <g> <g> <path class="st42" d="M753.3,422.5C753.3,422.5,753.5,422.5,753.3,422.5c0.3-0.3,0.3-0.4,0.1-0.5c0,0,0,0-0.1-0.1 c-0.3-0.3-0.8-0.1-0.8,0.3C752.5,422.6,753.1,422.7,753.3,422.5L753.3,422.5z"></path> </g> </g> </g> <g> <g> <g> <path class="st42" d="M738.3,408.5c0.6,0,0.6-1,0-1S737.7,408.5,738.3,408.5L738.3,408.5z"></path> </g> </g> </g> <g> <g> <g> <path class="st42" d="M734.3,401.2L734.3,401.2c-0.3,0.1-0.3,0.4-0.1,0.5c0,0,0,0,0.1,0.1c0.3,0.3,0.6,0.1,0.6-0.3 C735,401,734.6,400.9,734.3,401.2L734.3,401.2z"></path> </g> </g> </g> <g> <g> <g> <path class="st42" d="M749.8,398.2c0.5,0,0.5-0.8,0-0.8C749.3,397.4,749.3,398.2,749.8,398.2L749.8,398.2z"></path> </g> </g> </g> <g> <g> <g> <path class="st42" d="M752.5,405.2C752.7,405.2,752.7,405,752.5,405.2c0.4-0.1,0.4-0.5,0.1-0.6c0,0-0.1,0-0.1-0.1 C751.8,404,751.8,405.5,752.5,405.2L752.5,405.2z"></path> </g> </g> </g> <g> <g> <g> <path class="st42" d="M758.7,405.3c0.5,0,0.5-0.8,0-0.8C758.2,404.5,758.2,405.3,758.7,405.3L758.7,405.3z"></path> </g> </g> </g> <g> <g> <g> <path class="st42" d="M761.8,412.9c0.5,0,0.5-0.8,0-0.8S761.3,412.9,761.8,412.9L761.8,412.9z"></path> </g> </g> </g> <g> <g> <g> <path class="st42" d="M721.9,385.8c0.3,0.1,0.5,0.3,0.8,0.1c0.3-0.1,0.4-0.3,0.3-0.5c-0.1-0.3-0.4-0.4-0.6-0.4 C721.8,385,721.4,385.7,721.9,385.8L721.9,385.8z"></path> </g> </g> </g> <g> <g> <g> <path class="st42" d="M726.3,388.8C726.3,388.8,726.3,388.9,726.3,388.8c0.5,0.6,1.2-0.1,0.6-0.5c0,0,0,0-0.1-0.1 C726.6,388,726.1,388.4,726.3,388.8L726.3,388.8z"></path> </g> </g> </g> <g> <g> <g> <path class="st42" d="M729.2,380.1c0,0-0.1,0-0.1,0.1c-0.1,0.1-0.3,0.3-0.3,0.4c0,0.1,0,0.3,0.1,0.3c0.1,0.1,0.4,0.1,0.5,0.1 c0,0,0.1,0,0.1-0.1C730.1,380.6,729.7,379.8,729.2,380.1L729.2,380.1z"></path> </g> </g> </g> <g> <g> <g> <path class="st42" d="M721.2,380.5c0.4,0.1,0.6,0.3,0.9,0c0,0,0.1-0.1,0-0.3c-0.1-0.4-0.4-0.4-0.8-0.5 C720.9,379.6,720.6,380.4,721.2,380.5L721.2,380.5z"></path> </g> </g> </g> <path class="st29" d="M762.8,441.2h45c0,0-0.8,49-21.6,50.2C754.5,493.4,762.8,441.2,762.8,441.2z"></path> <path class="st43" d="M759.7,441.2h17.4c0,0-9.6,31.5,4.9,50.2l0,0C782.1,491.4,755.1,493,759.7,441.2"></path> </svg> 